<mxfile host="Electron" modified="2024-07-20T12:26:54.027Z" agent="Mozilla/5.0 (X11; Linux x86_64) AppleWebKit/537.36 (KHTML, like Gecko) draw.io/24.6.4 Chrome/124.0.6367.207 Electron/30.0.6 Safari/537.36" etag="TEwozRYGuk0tSH_6zSPB" version="24.6.4" type="device">
  <diagram name="Page-1" id="LVdLgsCtn19d_F_rj66w">
    <mxGraphModel dx="683" dy="401" grid="1" gridSize="10" guides="1" tooltips="1" connect="1" arrows="1" fold="1" page="1" pageScale="1" pageWidth="1654" pageHeight="1169" math="0" shadow="0">
      <root>
        <mxCell id="0" />
        <mxCell id="1" parent="0" />
        <mxCell id="58WdJwZh6YiTNtyLG-hr-2" value="MediaCow Touch 2 &quot;Paris&quot; - CTCL 2021-2024&lt;br style=&quot;font-size: 24px;&quot;&gt;Description: Device power supply info&lt;div&gt;&lt;div style=&quot;font-size: 24px;&quot;&gt;Created: July 20, 2024&lt;/div&gt;&lt;div style=&quot;font-size: 24px;&quot;&gt;Modified: July 20, 2024&lt;br&gt;Drawn with diagrams.net/drawio on:&lt;/div&gt;&lt;div style=&quot;font-size: 24px;&quot;&gt;- WBPC1 &quot;Polybutylene Terephthalate&quot;&lt;/div&gt;&lt;div style=&quot;font-size: 24px;&quot;&gt;&lt;br&gt;&lt;/div&gt;&lt;/div&gt;" style="text;html=1;align=left;verticalAlign=top;whiteSpace=wrap;rounded=0;fontSize=24;" parent="1" vertex="1">
          <mxGeometry y="890" width="563.57" height="270" as="geometry" />
        </mxCell>
        <mxCell id="ajmuirxgLFwVkuoWpSge-5" style="edgeStyle=orthogonalEdgeStyle;rounded=0;orthogonalLoop=1;jettySize=auto;html=1;exitX=1;exitY=0.5;exitDx=0;exitDy=0;entryX=0.5;entryY=1;entryDx=0;entryDy=0;" edge="1" parent="1" source="ajmuirxgLFwVkuoWpSge-1" target="ajmuirxgLFwVkuoWpSge-4">
          <mxGeometry relative="1" as="geometry" />
        </mxCell>
        <mxCell id="ajmuirxgLFwVkuoWpSge-1" value="Battery" style="whiteSpace=wrap;html=1;aspect=fixed;" vertex="1" parent="1">
          <mxGeometry x="260" y="480" width="160" height="160" as="geometry" />
        </mxCell>
        <mxCell id="ajmuirxgLFwVkuoWpSge-3" style="edgeStyle=orthogonalEdgeStyle;rounded=0;orthogonalLoop=1;jettySize=auto;html=1;exitX=0;exitY=0.5;exitDx=0;exitDy=0;startArrow=classic;startFill=1;" edge="1" parent="1" source="ajmuirxgLFwVkuoWpSge-2" target="ajmuirxgLFwVkuoWpSge-1">
          <mxGeometry relative="1" as="geometry" />
        </mxCell>
        <mxCell id="ajmuirxgLFwVkuoWpSge-9" style="edgeStyle=orthogonalEdgeStyle;rounded=0;orthogonalLoop=1;jettySize=auto;html=1;exitX=0.5;exitY=0;exitDx=0;exitDy=0;entryX=0.5;entryY=1;entryDx=0;entryDy=0;" edge="1" parent="1" source="ajmuirxgLFwVkuoWpSge-2" target="ajmuirxgLFwVkuoWpSge-7">
          <mxGeometry relative="1" as="geometry" />
        </mxCell>
        <mxCell id="ajmuirxgLFwVkuoWpSge-11" style="edgeStyle=orthogonalEdgeStyle;rounded=0;orthogonalLoop=1;jettySize=auto;html=1;exitX=0;exitY=0.5;exitDx=0;exitDy=0;entryX=0.5;entryY=1;entryDx=0;entryDy=0;" edge="1" parent="1" source="ajmuirxgLFwVkuoWpSge-2" target="ajmuirxgLFwVkuoWpSge-10">
          <mxGeometry relative="1" as="geometry" />
        </mxCell>
        <mxCell id="ajmuirxgLFwVkuoWpSge-2" value="&lt;div&gt;Battery Charger IC&lt;br&gt;&lt;/div&gt;BQ25700A" style="rounded=0;whiteSpace=wrap;html=1;" vertex="1" parent="1">
          <mxGeometry x="560" y="520" width="120" height="80" as="geometry" />
        </mxCell>
        <mxCell id="ajmuirxgLFwVkuoWpSge-16" style="edgeStyle=orthogonalEdgeStyle;rounded=0;orthogonalLoop=1;jettySize=auto;html=1;exitX=0.5;exitY=0;exitDx=0;exitDy=0;" edge="1" parent="1" source="ajmuirxgLFwVkuoWpSge-4" target="ajmuirxgLFwVkuoWpSge-15">
          <mxGeometry relative="1" as="geometry" />
        </mxCell>
        <mxCell id="ajmuirxgLFwVkuoWpSge-4" value="Switch&lt;div&gt;&lt;/div&gt;" style="rounded=0;whiteSpace=wrap;html=1;" vertex="1" parent="1">
          <mxGeometry x="440" y="480" width="40" height="30" as="geometry" />
        </mxCell>
        <mxCell id="ajmuirxgLFwVkuoWpSge-6" value="12v-20v" style="text;html=1;align=center;verticalAlign=middle;whiteSpace=wrap;rounded=0;" vertex="1" parent="1">
          <mxGeometry x="470" y="540" width="60" height="20" as="geometry" />
        </mxCell>
        <mxCell id="ajmuirxgLFwVkuoWpSge-7" value="&lt;font style=&quot;font-size: 12px;&quot;&gt;PMEC&lt;/font&gt;&lt;br style=&quot;font-size: 8px;&quot;&gt;STM32L4A6RGT" style="rounded=0;whiteSpace=wrap;html=1;strokeColor=#0000FF;fontSize=8;" vertex="1" parent="1">
          <mxGeometry x="580" y="400" width="80" height="80" as="geometry" />
        </mxCell>
        <mxCell id="ajmuirxgLFwVkuoWpSge-12" style="edgeStyle=orthogonalEdgeStyle;rounded=0;orthogonalLoop=1;jettySize=auto;html=1;exitX=0.5;exitY=0;exitDx=0;exitDy=0;entryX=0;entryY=0.5;entryDx=0;entryDy=0;" edge="1" parent="1" source="ajmuirxgLFwVkuoWpSge-10" target="ajmuirxgLFwVkuoWpSge-7">
          <mxGeometry relative="1" as="geometry" />
        </mxCell>
        <mxCell id="ajmuirxgLFwVkuoWpSge-10" value="LDO&lt;div&gt;&lt;/div&gt;" style="rounded=0;whiteSpace=wrap;html=1;" vertex="1" parent="1">
          <mxGeometry x="520" y="480" width="40" height="30" as="geometry" />
        </mxCell>
        <mxCell id="ajmuirxgLFwVkuoWpSge-13" value="1.8v" style="text;html=1;align=center;verticalAlign=middle;whiteSpace=wrap;rounded=0;" vertex="1" parent="1">
          <mxGeometry x="540" y="450" width="30" height="20" as="geometry" />
        </mxCell>
        <mxCell id="ajmuirxgLFwVkuoWpSge-15" value="LattePanda Mu" style="rounded=0;whiteSpace=wrap;html=1;strokeColor=#0000FF;" vertex="1" parent="1">
          <mxGeometry x="370" y="280" width="180" height="120" as="geometry" />
        </mxCell>
        <mxCell id="ajmuirxgLFwVkuoWpSge-17" value="12v-20v" style="text;html=1;align=center;verticalAlign=middle;whiteSpace=wrap;rounded=0;" vertex="1" parent="1">
          <mxGeometry x="400" y="440" width="60" height="20" as="geometry" />
        </mxCell>
        <mxCell id="ajmuirxgLFwVkuoWpSge-24" style="edgeStyle=orthogonalEdgeStyle;rounded=0;orthogonalLoop=1;jettySize=auto;html=1;exitX=0;exitY=0.5;exitDx=0;exitDy=0;entryX=1;entryY=0.25;entryDx=0;entryDy=0;startArrow=classic;startFill=1;" edge="1" parent="1" source="ajmuirxgLFwVkuoWpSge-19" target="ajmuirxgLFwVkuoWpSge-21">
          <mxGeometry relative="1" as="geometry">
            <Array as="points">
              <mxPoint x="830" y="540" />
              <mxPoint x="830" y="550" />
            </Array>
          </mxGeometry>
        </mxCell>
        <mxCell id="ajmuirxgLFwVkuoWpSge-19" value="USB&lt;div&gt;C&lt;/div&gt;" style="rounded=0;whiteSpace=wrap;html=1;" vertex="1" parent="1">
          <mxGeometry x="850" y="520" width="30" height="40" as="geometry" />
        </mxCell>
        <mxCell id="ajmuirxgLFwVkuoWpSge-22" style="edgeStyle=orthogonalEdgeStyle;rounded=0;orthogonalLoop=1;jettySize=auto;html=1;exitX=0;exitY=0.5;exitDx=0;exitDy=0;entryX=1;entryY=0.75;entryDx=0;entryDy=0;startArrow=classic;startFill=1;" edge="1" parent="1" source="ajmuirxgLFwVkuoWpSge-20" target="ajmuirxgLFwVkuoWpSge-21">
          <mxGeometry relative="1" as="geometry">
            <Array as="points">
              <mxPoint x="830" y="580" />
              <mxPoint x="830" y="570" />
            </Array>
          </mxGeometry>
        </mxCell>
        <mxCell id="ajmuirxgLFwVkuoWpSge-20" value="USB&lt;div&gt;C&lt;/div&gt;" style="rounded=0;whiteSpace=wrap;html=1;" vertex="1" parent="1">
          <mxGeometry x="850" y="560" width="30" height="40" as="geometry" />
        </mxCell>
        <mxCell id="ajmuirxgLFwVkuoWpSge-21" value="???" style="rounded=0;whiteSpace=wrap;html=1;" vertex="1" parent="1">
          <mxGeometry x="760" y="540" width="40" height="40" as="geometry" />
        </mxCell>
        <mxCell id="ajmuirxgLFwVkuoWpSge-25" style="edgeStyle=orthogonalEdgeStyle;rounded=0;orthogonalLoop=1;jettySize=auto;html=1;exitX=0;exitY=0.5;exitDx=0;exitDy=0;entryX=1.02;entryY=0.5;entryDx=0;entryDy=0;entryPerimeter=0;startArrow=classic;startFill=1;" edge="1" parent="1" source="ajmuirxgLFwVkuoWpSge-21" target="ajmuirxgLFwVkuoWpSge-2">
          <mxGeometry relative="1" as="geometry" />
        </mxCell>
        <mxCell id="ajmuirxgLFwVkuoWpSge-26" value="12v-20v" style="text;html=1;align=center;verticalAlign=middle;whiteSpace=wrap;rounded=0;" vertex="1" parent="1">
          <mxGeometry x="690" y="540" width="60" height="20" as="geometry" />
        </mxCell>
        <mxCell id="ajmuirxgLFwVkuoWpSge-27" value="12v-20v" style="text;html=1;align=center;verticalAlign=middle;whiteSpace=wrap;rounded=0;" vertex="1" parent="1">
          <mxGeometry x="790" y="520" width="60" height="20" as="geometry" />
        </mxCell>
      </root>
    </mxGraphModel>
  </diagram>
</mxfile>
